ffmpeg started on 2025-06-06 at 17:36:15
Report written to "D:\Convert\FFMetrics\reports\ssim_report-6.txt"
Log level: 32
Command line:
ffmpeg -hide_banner -nostdin -i "G:\\\xc0\xed\xe8\xec\xe5\\\xce\xed\xe3\xee\xe8\xed\xe3\xe8\\!_36_\xce\xf1\xe5\xed\xfc_2024\\DreamCast\\\xcf\xeb\xee\xf5\xe0\xff \xef\xee\xe5\xe7\xe4\xea\xe0\\[DC] Acro Trip - 12_Telegram_HEVC.mkv" -i "G:\\\xc0\xed\xe8\xec\xe5\\\xce\xed\xe3\xee\xe8\xed\xe3\xe8\\!_36_\xce\xf1\xe5\xed\xfc_2024\\DreamCast\\\xcf\xeb\xee\xf5\xe0\xff \xef\xee\xe5\xe7\xe4\xea\xe0\\[DC] Acro Trip - 12_Telegram.mp4" -lavfi "[0:v]settb=AVTB,setpts=PTS-STARTPTS,format=pix_fmts=yuv420p10,fps=24000/1001,scale=1920:1080:flags=bicubic[main];[1:v]settb=AVTB,setpts=PTS-STARTPTS,format=pix_fmts=yuv420p,fps=24000/1001,scale=1920:1080:flags=bicubic[ref];[main][ref]ssim=eof_action=endall:stats_file='D\\:/Convert/FFMetrics/logs/ssim_logfile-6.txt'" -f null -
Input #0, matroska,webm, from 'G:\Аниме\Онгоинги\!_36_Осень_2024\DreamCast\Плохая поездка\[DC] Acro Trip - 12_Telegram_HEVC.mkv':
  Metadata:
    COMPATIBLE_BRANDS: isomiso2avc1mp41
    MAJOR_BRAND     : isom
    MINOR_VERSION   : 512
    ENCODER         : Lavf61.7.100
  Duration: 00:23:46.69, start: -0.021000, bitrate: 1311 kb/s
  Stream #0:0: Video: hevc (Main 10), yuv420p10le(tv, bt709, progressive), 1920x1080 [SAR 1:1 DAR 16:9], 23.98 fps, 23.98 tbr, 1k tbn (default)
      Metadata:
        HANDLER_NAME    : VideoHandler
        VENDOR_ID       : [0][0][0][0]
        ENCODER         : Lavc61.19.100 libx265
        BPS             : 1113915
        DURATION        : 00:23:46.591708333
        NUMBER_OF_FRAMES: 34204
        NUMBER_OF_BYTES : 198637777
        _STATISTICS_WRITING_APP: mkvpropedit v66.0.0 ('Josie') 64-bit
        _STATISTICS_WRITING_DATE_UTC: 2025-06-02 13:47:45
        _STATISTICS_TAGS: BPS DURATION NUMBER_OF_FRAMES NUMBER_OF_BYTES
  Stream #0:1: Audio: aac (LC), 48000 Hz, stereo, fltp (default)
      Metadata:
        HANDLER_NAME    : SoundHandler
        VENDOR_ID       : [0][0][0][0]
        ENCODER         : Lavc61.19.100 aac
        BPS             : 193562
        DURATION        : 00:23:46.688000000
        NUMBER_OF_FRAMES: 66877
        NUMBER_OF_BYTES : 34519231
        _STATISTICS_WRITING_APP: mkvpropedit v66.0.0 ('Josie') 64-bit
        _STATISTICS_WRITING_DATE_UTC: 2025-06-02 13:47:45
        _STATISTICS_TAGS: BPS DURATION NUMBER_OF_FRAMES NUMBER_OF_BYTES
Input #1, mov,mp4,m4a,3gp,3g2,mj2, from 'G:\Аниме\Онгоинги\!_36_Осень_2024\DreamCast\Плохая поездка\[DC] Acro Trip - 12_Telegram.mp4':
  Metadata:
    major_brand     : isom
    minor_version   : 512
    compatible_brands: isomiso2avc1mp41
    encoder         : Lavf61.1.100
  Duration: 00:23:46.66, start: 0.000000, bitrate: 3885 kb/s
  Stream #1:0[0x1](und): Video: h264 (High) (avc1 / 0x31637661), yuv420p(tv, bt709, progressive), 1920x1080 [SAR 1:1 DAR 16:9], 3737 kb/s, 23.98 fps, 23.98 tbr, 24k tbn (default)
      Metadata:
        handler_name    : VideoHandler
        vendor_id       : [0][0][0][0]
        encoder         : Lavc61.3.100 h264_qsv
  Stream #1:1[0x2](und): Audio: aac (HE-AACv2) (mp4a / 0x6134706D), 48000 Hz, stereo, fltp, 144 kb/s (default)
      Metadata:
        handler_name    : SoundHandler
        vendor_id       : [0][0][0][0]
Stream mapping:
  Stream #0:0 (hevc) -> settb:default
  Stream #1:0 (h264) -> settb:default
  ssim:default -> Stream #0:0 (wrapped_avframe)
  Stream #0:1 -> #0:1 (aac (native) -> pcm_s16le (native))
Output #0, null, to 'pipe:':
  Metadata:
    COMPATIBLE_BRANDS: isomiso2avc1mp41
    MAJOR_BRAND     : isom
    MINOR_VERSION   : 512
    encoder         : Lavf61.7.100
  Stream #0:0: Video: wrapped_avframe, yuv420p10le(tv, bt709, progressive), 1920x1080 [SAR 1:1 DAR 16:9], q=2-31, 200 kb/s, 23.98 fps, 23.98 tbn
      Metadata:
        encoder         : Lavc61.19.100 wrapped_avframe
  Stream #0:1: Audio: pcm_s16le, 48000 Hz, stereo, s16, 1536 kb/s (default)
      Metadata:
        HANDLER_NAME    : SoundHandler
        VENDOR_ID       : [0][0][0][0]
        _STATISTICS_TAGS: BPS DURATION NUMBER_OF_FRAMES NUMBER_OF_BYTES
        BPS             : 193562
        DURATION        : 00:23:46.688000000
        NUMBER_OF_FRAMES: 66877
        NUMBER_OF_BYTES : 34519231
        _STATISTICS_WRITING_APP: mkvpropedit v66.0.0 ('Josie') 64-bit
        _STATISTICS_WRITING_DATE_UTC: 2025-06-02 13:47:45
        encoder         : Lavc61.19.100 pcm_s16le
frame=  156 fps=0.0 q=-0.0 size=N/A time=00:00:06.50 bitrate=N/A speed=12.7x    frame=  399 fps=385 q=-0.0 size=N/A time=00:00:16.68 bitrate=N/A speed=16.1x    frame=  629 fps=406 q=-0.0 size=N/A time=00:00:26.23 bitrate=N/A speed=16.9x    frame=  875 fps=425 q=-0.0 size=N/A time=00:00:36.49 bitrate=N/A speed=17.7x    frame= 1124 fps=434 q=-0.0 size=N/A time=00:00:46.88 bitrate=N/A speed=18.1x    frame= 1373 fps=443 q=-0.0 size=N/A time=00:00:57.26 bitrate=N/A speed=18.5x    frame= 1615 fps=448 q=-0.0 size=N/A time=00:01:07.35 bitrate=N/A speed=18.7x    frame= 1864 fps=451 q=-0.0 size=N/A time=00:01:17.74 bitrate=N/A speed=18.8x    frame= 2085 fps=450 q=-0.0 size=N/A time=00:01:26.96 bitrate=N/A speed=18.8x    frame= 2314 fps=448 q=-0.0 size=N/A time=00:01:36.51 bitrate=N/A speed=18.7x    frame= 2492 fps=439 q=-0.0 size=N/A time=00:01:43.93 bitrate=N/A speed=18.3x    frame= 2695 fps=436 q=-0.0 size=N/A time=00:01:52.40 bitrate=N/A speed=18.2x    frame= 2921 fps=436 q=-0.0 size=N/A time=00:02:01.83 bitrate=N/A speed=18.2x    frame= 3116 fps=431 q=-0.0 size=N/A time=00:02:09.96 bitrate=N/A speed=  18x    frame= 3304 fps=427 q=-0.0 size=N/A time=00:02:17.80 bitrate=N/A speed=17.8x    frame= 3510 fps=425 q=-0.0 size=N/A time=00:02:26.39 bitrate=N/A speed=17.7x    frame= 3696 fps=422 q=-0.0 size=N/A time=00:02:34.15 bitrate=N/A speed=17.6x    frame= 3847 fps=414 q=-0.0 size=N/A time=00:02:40.45 bitrate=N/A speed=17.3x    frame= 4031 fps=411 q=-0.0 size=N/A time=00:02:48.12 bitrate=N/A speed=17.1x    frame= 4190 fps=406 q=-0.0 size=N/A time=00:02:54.75 bitrate=N/A speed=16.9x    frame= 4367 fps=403 q=-0.0 size=N/A time=00:03:02.14 bitrate=N/A speed=16.8x    frame= 4570 fps=403 q=-0.0 size=N/A time=00:03:10.60 bitrate=N/A speed=16.8x    frame= 4809 fps=405 q=-0.0 size=N/A time=00:03:20.57 bitrate=N/A speed=16.9x    frame= 5053 fps=408 q=-0.0 size=N/A time=00:03:30.75 bitrate=N/A speed=  17x    frame= 5300 fps=411 q=-0.0 size=N/A time=00:03:41.05 bitrate=N/A speed=17.2x    frame= 5528 fps=412 q=-0.0 size=N/A time=00:03:50.56 bitrate=N/A speed=17.2x    frame= 5785 fps=415 q=-0.0 size=N/A time=00:04:01.28 bitrate=N/A speed=17.3x    frame= 6051 fps=419 q=-0.0 size=N/A time=00:04:12.37 bitrate=N/A speed=17.5x    frame= 6286 fps=420 q=-0.0 size=N/A time=00:04:22.17 bitrate=N/A speed=17.5x    frame= 6546 fps=423 q=-0.0 size=N/A time=00:04:33.02 bitrate=N/A speed=17.6x    frame= 6811 fps=426 q=-0.0 size=N/A time=00:04:44.07 bitrate=N/A speed=17.8x    frame= 7086 fps=429 q=-0.0 size=N/A time=00:04:55.54 bitrate=N/A speed=17.9x    frame= 7339 fps=431 q=-0.0 size=N/A time=00:05:06.09 bitrate=N/A speed=  18x    frame= 7550 fps=430 q=-0.0 size=N/A time=00:05:14.89 bitrate=N/A speed=17.9x    frame= 7796 fps=431 q=-0.0 size=N/A time=00:05:25.15 bitrate=N/A speed=  18x    frame= 8015 fps=431 q=-0.0 size=N/A time=00:05:34.29 bitrate=N/A speed=  18x    frame= 8264 fps=433 q=-0.0 size=N/A time=00:05:44.67 bitrate=N/A speed=18.1x    frame= 8524 fps=435 q=-0.0 size=N/A time=00:05:55.52 bitrate=N/A speed=18.1x    frame= 8782 fps=436 q=-0.0 size=N/A time=00:06:06.28 bitrate=N/A speed=18.2x    frame= 8995 fps=436 q=-0.0 size=N/A time=00:06:15.16 bitrate=N/A speed=18.2x    frame= 9233 fps=436 q=-0.0 size=N/A time=00:06:25.09 bitrate=N/A speed=18.2x    frame= 9486 fps=438 q=-0.0 size=N/A time=00:06:35.64 bitrate=N/A speed=18.3x    frame= 9712 fps=438 q=-0.0 size=N/A time=00:06:45.07 bitrate=N/A speed=18.3x    frame= 9967 fps=439 q=-0.0 size=N/A time=00:06:55.70 bitrate=N/A speed=18.3x    frame=10211 fps=440 q=-0.0 size=N/A time=00:07:05.88 bitrate=N/A speed=18.3x    frame=10466 fps=441 q=-0.0 size=N/A time=00:07:16.51 bitrate=N/A speed=18.4x    frame=10732 fps=442 q=-0.0 size=N/A time=00:07:27.61 bitrate=N/A speed=18.5x    frame=10956 fps=442 q=-0.0 size=N/A time=00:07:36.95 bitrate=N/A speed=18.5x    frame=11143 fps=441 q=-0.0 size=N/A time=00:07:44.75 bitrate=N/A speed=18.4x    frame=11336 fps=439 q=-0.0 size=N/A time=00:07:52.80 bitrate=N/A speed=18.3x    frame=11528 fps=438 q=-0.0 size=N/A time=00:08:00.81 bitrate=N/A speed=18.3x    frame=11765 fps=438 q=-0.0 size=N/A time=00:08:10.69 bitrate=N/A speed=18.3x    frame=12000 fps=439 q=-0.0 size=N/A time=00:08:20.50 bitrate=N/A speed=18.3x    frame=12228 fps=439 q=-0.0 size=N/A time=00:08:30.00 bitrate=N/A speed=18.3x    frame=12413 fps=437 q=-0.0 size=N/A time=00:08:37.72 bitrate=N/A speed=18.2x    frame=12663 fps=438 q=-0.0 size=N/A time=00:08:48.15 bitrate=N/A speed=18.3x    frame=12873 fps=438 q=-0.0 size=N/A time=00:08:56.91 bitrate=N/A speed=18.3x    frame=13077 fps=437 q=-0.0 size=N/A time=00:09:05.41 bitrate=N/A speed=18.2x    frame=13289 fps=437 q=-0.0 size=N/A time=00:09:14.26 bitrate=N/A speed=18.2x    frame=13481 fps=435 q=-0.0 size=N/A time=00:09:22.27 bitrate=N/A speed=18.2x    frame=13702 fps=435 q=-0.0 size=N/A time=00:09:31.48 bitrate=N/A speed=18.2x    frame=13895 fps=434 q=-0.0 size=N/A time=00:09:39.53 bitrate=N/A speed=18.1x    frame=14130 fps=435 q=-0.0 size=N/A time=00:09:49.33 bitrate=N/A speed=18.1x    frame=14378 fps=435 q=-0.0 size=N/A time=00:09:59.68 bitrate=N/A speed=18.2x    frame=14554 fps=434 q=-0.0 size=N/A time=00:10:07.02 bitrate=N/A speed=18.1x    frame=14784 fps=434 q=-0.0 size=N/A time=00:10:16.61 bitrate=N/A speed=18.1x    frame=15042 fps=435 q=-0.0 size=N/A time=00:10:27.37 bitrate=N/A speed=18.1x    frame=15303 fps=436 q=-0.0 size=N/A time=00:10:38.26 bitrate=N/A speed=18.2x    frame=15504 fps=435 q=-0.0 size=N/A time=00:10:46.64 bitrate=N/A speed=18.2x    frame=15650 fps=433 q=-0.0 size=N/A time=00:10:52.73 bitrate=N/A speed=18.1x    frame=15857 fps=433 q=-0.0 size=N/A time=00:11:01.36 bitrate=N/A speed=18.1x    frame=16082 fps=433 q=-0.0 size=N/A time=00:11:10.75 bitrate=N/A speed=18.1x    frame=16331 fps=433 q=-0.0 size=N/A time=00:11:21.13 bitrate=N/A speed=18.1x    frame=16585 fps=434 q=-0.0 size=N/A time=00:11:31.73 bitrate=N/A speed=18.1x    frame=16818 fps=434 q=-0.0 size=N/A time=00:11:41.45 bitrate=N/A speed=18.1x    frame=17081 fps=436 q=-0.0 size=N/A time=00:11:52.42 bitrate=N/A speed=18.2x    frame=17349 fps=437 q=-0.0 size=N/A time=00:12:03.59 bitrate=N/A speed=18.2x    frame=17602 fps=437 q=-0.0 size=N/A time=00:12:14.15 bitrate=N/A speed=18.2x    frame=17869 fps=438 q=-0.0 size=N/A time=00:12:25.28 bitrate=N/A speed=18.3x    frame=18100 fps=438 q=-0.0 size=N/A time=00:12:34.92 bitrate=N/A speed=18.3x    frame=18330 fps=439 q=-0.0 size=N/A time=00:12:44.51 bitrate=N/A speed=18.3x    frame=18593 fps=439 q=-0.0 size=N/A time=00:12:55.48 bitrate=N/A speed=18.3x    frame=18834 fps=440 q=-0.0 size=N/A time=00:13:05.53 bitrate=N/A speed=18.3x    frame=19089 fps=440 q=-0.0 size=N/A time=00:13:16.17 bitrate=N/A speed=18.4x    frame=19354 fps=441 q=-0.0 size=N/A time=00:13:27.22 bitrate=N/A speed=18.4x    frame=19588 fps=441 q=-0.0 size=N/A time=00:13:36.98 bitrate=N/A speed=18.4x    frame=19805 fps=441 q=-0.0 size=N/A time=00:13:46.03 bitrate=N/A speed=18.4x    frame=20043 fps=441 q=-0.0 size=N/A time=00:13:55.96 bitrate=N/A speed=18.4x    frame=20323 fps=442 q=-0.0 size=N/A time=00:14:07.63 bitrate=N/A speed=18.5x    frame=20579 fps=443 q=-0.0 size=N/A time=00:14:18.31 bitrate=N/A speed=18.5x    frame=20828 fps=444 q=-0.0 size=N/A time=00:14:28.70 bitrate=N/A speed=18.5x    frame=21068 fps=444 q=-0.0 size=N/A time=00:14:38.71 bitrate=N/A speed=18.5x    frame=21261 fps=443 q=-0.0 size=N/A time=00:14:46.76 bitrate=N/A speed=18.5x    frame=21441 fps=442 q=-0.0 size=N/A time=00:14:54.26 bitrate=N/A speed=18.4x    frame=21643 fps=442 q=-0.0 size=N/A time=00:15:02.69 bitrate=N/A speed=18.4x    frame=21850 fps=441 q=-0.0 size=N/A time=00:15:11.32 bitrate=N/A speed=18.4x    frame=22061 fps=441 q=-0.0 size=N/A time=00:15:20.12 bitrate=N/A speed=18.4x    frame=22208 fps=439 q=-0.0 size=N/A time=00:15:26.25 bitrate=N/A speed=18.3x    frame=22470 fps=440 q=-0.0 size=N/A time=00:15:37.18 bitrate=N/A speed=18.3x    frame=22685 fps=440 q=-0.0 size=N/A time=00:15:46.15 bitrate=N/A speed=18.3x    frame=22907 fps=440 q=-0.0 size=N/A time=00:15:55.41 bitrate=N/A speed=18.3x    frame=23147 fps=440 q=-0.0 size=N/A time=00:16:05.42 bitrate=N/A speed=18.3x    frame=23393 fps=440 q=-0.0 size=N/A time=00:16:15.68 bitrate=N/A speed=18.4x    frame=23653 fps=441 q=-0.0 size=N/A time=00:16:26.52 bitrate=N/A speed=18.4x    frame=23931 fps=442 q=-0.0 size=N/A time=00:16:38.12 bitrate=N/A speed=18.4x    frame=24169 fps=442 q=-0.0 size=N/A time=00:16:48.04 bitrate=N/A speed=18.4x    frame=24399 fps=442 q=-0.0 size=N/A time=00:16:57.64 bitrate=N/A speed=18.4x    frame=24641 fps=442 q=-0.0 size=N/A time=00:17:07.73 bitrate=N/A speed=18.4x    frame=24869 fps=442 q=-0.0 size=N/A time=00:17:17.24 bitrate=N/A speed=18.4x    frame=25076 fps=442 q=-0.0 size=N/A time=00:17:25.87 bitrate=N/A speed=18.4x    frame=25311 fps=442 q=-0.0 size=N/A time=00:17:35.67 bitrate=N/A speed=18.4x    frame=25521 fps=442 q=-0.0 size=N/A time=00:17:44.43 bitrate=N/A speed=18.4x    frame=25743 fps=442 q=-0.0 size=N/A time=00:17:53.69 bitrate=N/A speed=18.4x    frame=26005 fps=442 q=-0.0 size=N/A time=00:18:04.62 bitrate=N/A speed=18.4x    frame=26254 fps=442 q=-0.0 size=N/A time=00:18:15.01 bitrate=N/A speed=18.5x    frame=26519 fps=443 q=-0.0 size=N/A time=00:18:26.06 bitrate=N/A speed=18.5x    frame=26788 fps=444 q=-0.0 size=N/A time=00:18:37.28 bitrate=N/A speed=18.5x    frame=27053 fps=444 q=-0.0 size=N/A time=00:18:48.33 bitrate=N/A speed=18.5x    frame=27341 fps=445 q=-0.0 size=N/A time=00:19:00.34 bitrate=N/A speed=18.6x    frame=27622 fps=446 q=-0.0 size=N/A time=00:19:12.06 bitrate=N/A speed=18.6x    frame=27893 fps=447 q=-0.0 size=N/A time=00:19:23.37 bitrate=N/A speed=18.6x    frame=28146 fps=447 q=-0.0 size=N/A time=00:19:33.92 bitrate=N/A speed=18.7x    frame=28436 fps=448 q=-0.0 size=N/A time=00:19:46.01 bitrate=N/A speed=18.7x    frame=28710 fps=449 q=-0.0 size=N/A time=00:19:57.44 bitrate=N/A speed=18.7x    frame=28972 fps=449 q=-0.0 size=N/A time=00:20:08.37 bitrate=N/A speed=18.7x    frame=29235 fps=450 q=-0.0 size=N/A time=00:20:19.34 bitrate=N/A speed=18.8x    frame=29497 fps=450 q=-0.0 size=N/A time=00:20:30.27 bitrate=N/A speed=18.8x    frame=29760 fps=451 q=-0.0 size=N/A time=00:20:41.24 bitrate=N/A speed=18.8x    frame=30025 fps=451 q=-0.0 size=N/A time=00:20:52.29 bitrate=N/A speed=18.8x    frame=30307 fps=452 q=-0.0 size=N/A time=00:21:04.05 bitrate=N/A speed=18.8x    frame=30574 fps=452 q=-0.0 size=N/A time=00:21:15.19 bitrate=N/A speed=18.9x    frame=30816 fps=452 q=-0.0 size=N/A time=00:21:25.28 bitrate=N/A speed=18.9x    frame=31068 fps=453 q=-0.0 size=N/A time=00:21:35.79 bitrate=N/A speed=18.9x    frame=31329 fps=453 q=-0.0 size=N/A time=00:21:46.68 bitrate=N/A speed=18.9x    frame=31584 fps=453 q=-0.0 size=N/A time=00:21:57.31 bitrate=N/A speed=18.9x    frame=31833 fps=454 q=-0.0 size=N/A time=00:22:07.70 bitrate=N/A speed=18.9x    frame=32084 fps=454 q=-0.0 size=N/A time=00:22:18.17 bitrate=N/A speed=18.9x    frame=32321 fps=454 q=-0.0 size=N/A time=00:22:28.05 bitrate=N/A speed=18.9x    frame=32544 fps=454 q=-0.0 size=N/A time=00:22:37.35 bitrate=N/A speed=18.9x    frame=32771 fps=454 q=-0.0 size=N/A time=00:22:46.82 bitrate=N/A speed=18.9x    frame=33043 fps=454 q=-0.0 size=N/A time=00:22:58.16 bitrate=N/A speed=18.9x    frame=33290 fps=454 q=-0.0 size=N/A time=00:23:08.47 bitrate=N/A speed=  19x    frame=33520 fps=454 q=-0.0 size=N/A time=00:23:18.06 bitrate=N/A speed=18.9x    frame=33741 fps=454 q=-0.0 size=N/A time=00:23:27.28 bitrate=N/A speed=18.9x    frame=33986 fps=454 q=-0.0 size=N/A time=00:23:37.49 bitrate=N/A speed=18.9x    [Parsed_ssim_10 @ 0000018d1101bfc0] SSIM Y:0.994751 (22.799120) U:0.993293 (21.734639) V:0.993519 (21.883619) All:0.994303 (22.443206)
[out#0/null @ 0000018d11175e00] video:14697KiB audio:267508KiB subtitle:0KiB other streams:0KiB global headers:0KiB muxing overhead: unknown
frame=34204 fps=454 q=-0.0 Lsize=N/A time=00:23:46.59 bitrate=N/A speed=  19x    
